<svg viewBox="0 0 640 400" data-background-color="#ffffff" preserveAspectRatio="xMidYMid meet" height="400" width="640" xmlns="http://www.w3.org/2000/svg" xmlns:xlink="http://www.w3.org/1999/xlink"><rect width="640" height="400" x="0" y="0" opacity="1" fill="#ffffff" data-fill-palette-color="background" id="background"></rect><g id="tight-bounds" transform="matrix(1,0,0,1,148.57422074112307,28.57422074112307)"><svg viewBox="0 0 342.85155851775386 342.85155851775386" height="342.85155851775386" width="342.85155851775386"><g><svg></svg></g><g><svg viewBox="0 0 342.85155851775386 342.85155851775386" height="342.85155851775386" width="342.85155851775386"><g><path d="M0 171.426c0-94.676 76.75-171.426 171.426-171.426 94.676 0 171.426 76.75 171.426 171.426 0 94.676-76.75 171.426-171.426 171.426-94.676 0-171.426-76.75-171.426-171.426zM171.426 340.301c93.267 0 168.875-75.608 168.875-168.875 0-93.267-75.608-168.875-168.875-168.875-93.267 0-168.875 75.608-168.875 168.875 0 93.267 75.608 168.875 168.875 168.875z" data-fill-palette-color="tertiary" fill="#ed3b43" stroke="transparent"></path><ellipse rx="164.56874808852186" ry="164.56874808852186" cx="171.42577925887693" cy="171.42577925887693" fill="#ed3b43" stroke="transparent" stroke-width="0" fill-opacity="1" data-fill-palette-color="tertiary"></ellipse></g><g transform="matrix(1,0,0,1,64.84655864529837,80.4585488739147)"><svg viewBox="0 0 213.1584412271571 181.93446076992447" height="181.93446076992447" width="213.1584412271571"><g><svg viewBox="0 0 213.1584412271571 181.93446076992447" height="181.93446076992447" width="213.1584412271571"><g><svg viewBox="0 0 213.1584412271571 181.93446076992447" height="181.93446076992447" width="213.1584412271571"><g transform="matrix(1,0,0,1,0,108.35867028572687)"><svg viewBox="0 0 213.1584412271571 73.5757904841976" height="73.5757904841976" width="213.1584412271571"><g><svg viewBox="0 0 213.1584412271571 73.5757904841976" height="73.5757904841976" width="213.1584412271571"><g><svg viewBox="0 0 213.1584412271571 45.756200738506216" height="45.756200738506216" width="213.1584412271571"><g transform="matrix(1,0,0,1,0,0)"><svg width="213.1584412271571" viewBox="1.850000023841858 -36.349998474121094 172.58999633789062 37.04999923706055" height="45.756200738506216" data-palette-color="#ffffff"><path d="M13.5 0.7L13.5 0.7Q6.4 0.7 3.7-2.6L3.7-2.6Q1.85-4.9 1.85-8.9L1.85-8.9Q1.85-10.75 2.25-12.95L2.25-12.95 4-22.95Q6.35-36.35 20.4-36.35L20.4-36.35Q26.2-36.35 29.2-33.88 32.2-31.4 32.2-27.1L32.2-27.1Q32.2-25.35 31.73-23.55 31.25-21.75 30.8-20.85L30.8-20.85 30.3-19.95 21.45-19.95Q22.75-21.75 22.75-24.1L22.75-24.1Q22.75-28.6 19-28.6L19-28.6Q13.95-28.6 12.95-22.75L12.95-22.75 11.25-13.15Q11-11.8 11-10.5L11-10.5Q11-7.05 15.08-7.05 19.15-7.05 20.3-11.15L20.3-11.15 16.2-11.15 17.2-16.7 30.45-16.7 29.65-12.4 29.4-10.95Q27.3 0.7 13.5 0.7ZM57.65-7.7L57.65-7.7Q57.65-6.4 58.97-6.4 60.3-6.4 61.2-6.9L61.2-6.9 60.95-1.25Q58.55 0.7 55.55 0.7L55.55 0.7Q49.9 0.7 49.4-3.65L49.4-3.65Q46.4 0.7 41.32 0.7 36.25 0.7 34.75-1.6L34.75-1.6Q33.75-3.05 33.75-4.9 33.75-6.75 34.05-8.3L34.05-8.3 36.85-24.05 45.35-24.05 43-10.75Q42.85-9.85 42.85-8.95L42.85-8.95Q42.85-6.55 45.55-6.55L45.55-6.55Q47.8-6.55 49.15-8.1L49.15-8.1 52-24.05 60.5-24.05 57.7-8.3Q57.65-8 57.65-7.7ZM88.55-18.95L88.55-18.95Q88.55-17.25 87.97-15.65 87.4-14.05 86.85-13.3L86.85-13.3 86.3-12.6 78.75-12.6Q80-13.75 80-15.45L80-15.45Q80-16.35 79.42-16.93 78.85-17.5 77.85-17.5L77.85-17.5Q76.15-17.5 74.9-15.8L74.9-15.8 72.1 0 63.6 0 67.85-24.05 75.75-24.05 75.15-20.7Q78-24.75 82.05-24.75L82.05-24.75Q85.3-24.75 86.92-23.2 88.55-21.65 88.55-18.95ZM100.09 0.7L100.09 0.7Q89.69 0.7 89.69-6.5L89.69-6.5Q89.69-7.5 89.89-8.65L89.89-8.65 90.94-14.85Q91.79-19.65 95.37-22.23 98.94-24.8 104.84-24.8L104.84-24.8Q114.89-24.8 114.89-17.2L114.89-17.2Q114.89-16.1 114.69-14.8L114.69-14.8 114.09-11.25 98.84-11.25 98.64-10.1Q98.54-9.5 98.54-9L98.54-9Q98.54-6.25 101.79-6.25L101.79-6.25Q102.99-6.25 103.84-7 104.69-7.75 104.84-8.75L104.84-8.75 113.14-8.65Q111.49 0.7 100.09 0.7ZM99.34-14.3L106.09-14.3Q106.29-15.15 106.29-15.88 106.29-16.6 105.64-17.35 104.99-18.1 103.57-18.1 102.14-18.1 100.97-17.15 99.79-16.2 99.34-14.3L99.34-14.3ZM133.69-15.35L133.69-15.35Q133.69-17.5 131.62-17.5 129.54-17.5 128.19-15.95L128.19-15.95 125.39 0 116.89 0 121.14-24.05 129.04-24.05 128.49-21.1Q131.44-24.75 135.94-24.75 140.44-24.75 141.79-22.55L141.79-22.55Q142.64-21.15 142.64-19.35 142.64-17.55 142.39-16L142.39-16 141.04-8.3Q140.99-8 140.99-7.75L140.99-7.75Q140.99-6.4 142.49-6.4L142.49-6.4Q143.64-6.4 144.54-6.9L144.54-6.9 144.29-1.25Q141.94 0.7 138.94 0.7L138.94 0.7Q132.14 0.7 132.14-5L132.14-5Q132.14-6 132.34-7.15L132.34-7.15 133.54-13.8Q133.69-14.7 133.69-15.35ZM163.59-15.35L163.59-15.35Q163.59-17.5 161.51-17.5 159.44-17.5 158.09-15.95L158.09-15.95 155.29 0 146.79 0 151.04-24.05 158.94-24.05 158.39-21.1Q161.34-24.75 165.84-24.75 170.34-24.75 171.69-22.55L171.69-22.55Q172.54-21.15 172.54-19.35 172.54-17.55 172.29-16L172.29-16 170.94-8.3Q170.89-8 170.89-7.75L170.89-7.75Q170.89-6.4 172.39-6.4L172.39-6.4Q173.54-6.4 174.44-6.9L174.44-6.9 174.19-1.25Q171.84 0.7 168.84 0.7L168.84 0.7Q162.04 0.7 162.04-5L162.04-5Q162.04-6 162.24-7.15L162.24-7.15 163.44-13.8Q163.59-14.7 163.59-15.35Z" opacity="1" transform="matrix(1,0,0,1,0,0)" fill="#ffffff" class="undefined-text-0" data-fill-palette-color="quaternary" id="text-0"></path></svg></g></svg></g><g transform="matrix(1,0,0,1,0,52.433128575072)"><svg viewBox="0 0 213.1584412271571 21.142661909125604" height="21.142661909125604" width="213.1584412271571"><g transform="matrix(1,0,0,1,0,0)"><svg width="213.1584412271571" viewBox="2.25 -37.25 443.07000732421875 43.95000076293945" height="21.142661909125604" data-palette-color="#ffffff"><path d="M37.5-2.1L31 3.3Q29.45 4.6 27.05 5.28 24.65 5.95 21.4 5.95L21.4 5.95 4.55 5.95Q3.35 5.95 2.8 5.4 2.25 4.85 2.25 3.65L2.25 3.65 2.25-28.75Q2.25-29.4 2.43-29.85 2.6-30.3 2.95-30.6L2.95-30.6 9.4-36.05Q9.65-36.25 10.08-36.38 10.5-36.5 11-36.5L11-36.5 27.85-36.5Q34.4-36.5 37.52-33.85 40.65-31.2 40.65-25.8L40.65-25.8 40.65-10.2Q40.65-7.5 39.85-5.48 39.05-3.45 37.5-2.1L37.5-2.1ZM11 0L27.85 0Q34.1 0 37.13-2.5 40.15-5 40.15-10.2L40.15-10.2 40.15-25.8Q40.15-31 37.13-33.5 34.1-36 27.85-36L27.85-36 11-36Q10.05-36 9.63-35.58 9.2-35.15 9.2-34.2L9.2-34.2 9.2-1.8Q9.2-0.85 9.63-0.43 10.05 0 11 0L11 0ZM26.75-4.5L14.65-4.5 14.65-31.5 26.75-31.5Q29.3-31.5 30.88-30.95 32.45-30.4 33.3-29.48 34.15-28.55 34.45-27.28 34.75-26 34.75-24.55L34.75-24.55 34.75-11.3Q34.75-9.85 34.48-8.6 34.2-7.35 33.35-6.45 32.5-5.55 30.9-5.03 29.3-4.5 26.75-4.5L26.75-4.5ZM26.75-31L26.75-31 15.15-31 15.15-5 26.75-5Q29.15-5 30.63-5.48 32.1-5.95 32.9-6.78 33.7-7.6 33.98-8.78 34.25-9.95 34.25-11.3L34.25-11.3 34.25-24.55Q34.25-25.9 33.95-27.1 33.65-28.3 32.85-29.15 32.05-30 30.58-30.5 29.1-31 26.75-31ZM20.55-9.45L20.55-26.45 26.5-26.45Q27.7-26.45 28.28-25.88 28.85-25.3 28.85-24.05L28.85-24.05 28.85-11.9Q28.85-10.65 28.28-10.05 27.7-9.45 26.5-9.45L26.5-9.45 20.55-9.45ZM21.9-9.95L21.9-18.6Q21.9-19.25 21.7-19.7 21.5-20.15 21.05-20.35L21.05-20.35 21.05-9.95 21.9-9.95ZM70.05 5.95L70.05 5.95 46.85 5.95Q45.65 5.95 45.1 5.4 44.55 4.85 44.55 3.65L44.55 3.65 44.55-28.75Q44.55-29.4 44.72-29.85 44.9-30.3 45.25-30.6L45.25-30.6 51.7-36.05Q51.95-36.25 52.37-36.38 52.8-36.5 53.3-36.5L53.3-36.5 76.5-36.5Q77.7-36.5 78.25-35.95 78.8-35.4 78.8-34.2L78.8-34.2 78.8-28.35Q78.8-27.7 78.62-27.25 78.45-26.8 78.1-26.5L78.1-26.5 73.8-22.95Q74.3-22.7 74.52-22.2 74.75-21.7 74.75-20.9L74.75-20.9 74.75-15.55Q74.75-14.9 74.57-14.45 74.4-14 74.05-13.7L74.05-13.7 69.6-9.95 76.5-9.95Q77.7-9.95 78.25-9.4 78.8-8.85 78.8-7.65L78.8-7.65 78.8-1.8Q78.8-1.15 78.62-0.7 78.45-0.25 78.1 0.05L78.1 0.05 71.6 5.45Q71.4 5.65 70.97 5.8 70.55 5.95 70.05 5.95ZM53.3 0L76.5 0Q77.45 0 77.87-0.43 78.3-0.85 78.3-1.8L78.3-1.8 78.3-7.65Q78.3-8.6 77.87-9.03 77.45-9.45 76.5-9.45L76.5-9.45 62.7-9.45 62.7-13.75 72.45-13.75Q73.4-13.75 73.82-14.18 74.25-14.6 74.25-15.55L74.25-15.55 74.25-20.9Q74.25-21.85 73.82-22.28 73.4-22.7 72.45-22.7L72.45-22.7 62.7-22.7 62.7-26.55 76.5-26.55Q77.45-26.55 77.87-26.98 78.3-27.4 78.3-28.35L78.3-28.35 78.3-34.2Q78.3-35.15 77.87-35.58 77.45-36 76.5-36L76.5-36 53.3-36Q52.35-36 51.92-35.58 51.5-35.15 51.5-34.2L51.5-34.2 51.5-1.8Q51.5-0.85 51.92-0.43 52.35 0 53.3 0L53.3 0ZM57.45-5L73.8-5 73.8-4.5 56.95-4.5 56.95-31.5 73.8-31.5 73.8-31 57.45-31 57.45-18.45 69.75-18.45 69.75-17.95 57.45-17.95 57.45-5ZM104.05 5.95L91.05 5.95Q89.9 5.95 89.2 5.53 88.5 5.1 88.05 4L88.05 4 83.15-8.25Q82.7-9.4 82.37-10.23 82.05-11.05 81.84-11.83 81.65-12.6 81.57-13.48 81.5-14.35 81.5-15.55L81.5-15.55 81.5-28.75Q81.5-29.4 81.67-29.85 81.84-30.3 82.2-30.6L82.2-30.6 88.65-36.05Q88.9-36.25 89.32-36.38 89.75-36.5 90.25-36.5L90.25-36.5 98.2-36.5Q99.4-36.5 100.02-35.93 100.65-35.35 100.65-34.2L100.65-34.2 100.65-20.4Q100.65-19.9 100.75-19.45 100.84-19 101-18.5L101-18.5 101.15-18.15 101.15-28.75Q101.15-29.4 101.32-29.85 101.5-30.3 101.84-30.6L101.84-30.6 108.3-36.05Q108.55-36.25 108.97-36.38 109.4-36.5 109.9-36.5L109.9-36.5 117.75-36.5Q119-36.5 119.52-35.95 120.05-35.4 120.05-34.2L120.05-34.2 120.05-21Q120.05-19.8 119.97-18.93 119.9-18.05 119.7-17.28 119.5-16.5 119.17-15.68 118.84-14.85 118.4-13.7L118.4-13.7 113.5-1.45Q113.34-1 113.09-0.65 112.84-0.3 112.59-0.1L112.59-0.1 106.15 5.25Q105.75 5.6 105.22 5.78 104.7 5.95 104.05 5.95L104.05 5.95ZM97.5 0L110.5 0Q111.45 0 112.07-0.35 112.7-0.7 113.05-1.65L113.05-1.65 117.95-13.9Q118.4-15 118.7-15.83 119-16.65 119.2-17.4 119.4-18.15 119.47-18.98 119.55-19.8 119.55-21L119.55-21 119.55-34.2Q119.55-35.15 119.12-35.58 118.7-36 117.75-36L117.75-36 109.9-36Q108.95-36 108.52-35.58 108.09-35.15 108.09-34.2L108.09-34.2 108.09-20.45Q108.09-19.95 108-19.45 107.9-18.95 107.7-18.4L107.7-18.4 105.34-11.35Q105.2-10.85 105-10.68 104.8-10.5 104.4-10.5L104.4-10.5 103.84-10.5Q103.45-10.5 103.25-10.68 103.05-10.85 102.9-11.35L102.9-11.35 100.55-18.35Q100.34-18.9 100.25-19.4 100.15-19.9 100.15-20.4L100.15-20.4 100.15-34.2Q100.15-35.15 99.65-35.58 99.15-36 98.2-36L98.2-36 90.25-36Q89.3-36 88.87-35.58 88.45-35.15 88.45-34.2L88.45-34.2 88.45-21Q88.45-19.8 88.52-18.98 88.59-18.15 88.8-17.4 89-16.65 89.3-15.83 89.59-15 90.05-13.9L90.05-13.9 94.95-1.65Q95.3-0.7 95.92-0.35 96.55 0 97.5 0L97.5 0ZM94.09-20.7L94.09-31.5 94.59-31.5 94.59-20.7Q94.59-19.4 94.8-18.23 95-17.05 95.4-16.05L95.4-16.05 98.7-8.05Q99.2-6.75 99.82-5.88 100.45-5 101.84-5L101.84-5 106.25-5Q107.65-5 108.27-5.88 108.9-6.75 109.4-8.05L109.4-8.05 112.7-16.05Q113.09-17.05 113.3-18.23 113.5-19.4 113.5-20.7L113.5-20.7 113.5-31.5 114-31.5 114-20.7Q114-19.3 113.82-18.13 113.65-16.95 113.2-15.85L113.2-15.85 109.9-7.85Q109.3-6.4 108.55-5.45 107.8-4.5 106.25-4.5L106.25-4.5 101.84-4.5Q100.3-4.5 99.55-5.45 98.8-6.4 98.2-7.85L98.2-7.85 94.9-15.85Q94.45-16.95 94.27-18.13 94.09-19.3 94.09-20.7L94.09-20.7ZM149.24 5.95L149.24 5.95 126.04 5.95Q124.84 5.95 124.29 5.4 123.74 4.85 123.74 3.65L123.74 3.65 123.74-28.75Q123.74-29.4 123.92-29.85 124.09-30.3 124.44-30.6L124.44-30.6 130.89-36.05Q131.14-36.25 131.57-36.38 131.99-36.5 132.49-36.5L132.49-36.5 155.69-36.5Q156.89-36.5 157.44-35.95 157.99-35.4 157.99-34.2L157.99-34.2 157.99-28.35Q157.99-27.7 157.82-27.25 157.64-26.8 157.29-26.5L157.29-26.5 152.99-22.95Q153.49-22.7 153.72-22.2 153.94-21.7 153.94-20.9L153.94-20.9 153.94-15.55Q153.94-14.9 153.77-14.45 153.59-14 153.24-13.7L153.24-13.7 148.79-9.95 155.69-9.95Q156.89-9.95 157.44-9.4 157.99-8.85 157.99-7.65L157.99-7.65 157.99-1.8Q157.99-1.15 157.82-0.7 157.64-0.25 157.29 0.05L157.29 0.05 150.79 5.45Q150.59 5.65 150.17 5.8 149.74 5.95 149.24 5.95ZM132.49 0L155.69 0Q156.64 0 157.07-0.43 157.49-0.85 157.49-1.8L157.49-1.8 157.49-7.65Q157.49-8.6 157.07-9.03 156.64-9.45 155.69-9.45L155.69-9.45 141.89-9.45 141.89-13.75 151.64-13.75Q152.59-13.75 153.02-14.18 153.44-14.6 153.44-15.55L153.44-15.55 153.44-20.9Q153.44-21.85 153.02-22.28 152.59-22.7 151.64-22.7L151.64-22.7 141.89-22.7 141.89-26.55 155.69-26.55Q156.64-26.55 157.07-26.98 157.49-27.4 157.49-28.35L157.49-28.35 157.49-34.2Q157.49-35.15 157.07-35.58 156.64-36 155.69-36L155.69-36 132.49-36Q131.54-36 131.12-35.58 130.69-35.15 130.69-34.2L130.69-34.2 130.69-1.8Q130.69-0.85 131.12-0.43 131.54 0 132.49 0L132.49 0ZM136.64-5L152.99-5 152.99-4.5 136.14-4.5 136.14-31.5 152.99-31.5 152.99-31 136.64-31 136.64-18.45 148.94-18.45 148.94-17.95 136.64-17.95 136.64-5ZM189.19 5.95L189.19 5.95 163.74 5.95Q162.54 5.95 161.99 5.4 161.44 4.85 161.44 3.65L161.44 3.65 161.44-28.75Q161.44-29.4 161.62-29.85 161.79-30.3 162.14-30.6L162.14-30.6 168.59-36.05Q168.84-36.25 169.26-36.38 169.69-36.5 170.19-36.5L170.19-36.5 177.94-36.5Q179.14-36.5 179.69-35.95 180.24-35.4 180.24-34.2L180.24-34.2 180.24-13.85 180.34-13.95 186.79-19.4Q187.04-19.6 187.47-19.73 187.89-19.85 188.39-19.85L188.39-19.85 195.64-19.85Q196.84-19.85 197.39-19.3 197.94-18.75 197.94-17.55L197.94-17.55 197.94-1.8Q197.94-1.15 197.76-0.7 197.59-0.25 197.24 0.05L197.24 0.05 190.74 5.45Q190.54 5.65 190.12 5.8 189.69 5.95 189.19 5.95ZM170.19 0L195.64 0Q196.59 0 197.01-0.43 197.44-0.85 197.44-1.8L197.44-1.8 197.44-17.55Q197.44-18.5 197.01-18.93 196.59-19.35 195.64-19.35L195.64-19.35 188.39-19.35Q187.44-19.35 187.01-18.93 186.59-18.5 186.59-17.55L186.59-17.55 186.59-9.45 179.74-9.45 179.74-34.2Q179.74-35.15 179.31-35.58 178.89-36 177.94-36L177.94-36 170.19-36Q169.24-36 168.81-35.58 168.39-35.15 168.39-34.2L168.39-34.2 168.39-1.8Q168.39-0.85 168.81-0.43 169.24 0 170.19 0L170.19 0ZM192.24-4.5L173.84-4.5 173.84-31.5 174.34-31.5 174.34-5 191.74-5 191.74-14.85 192.24-14.85 192.24-4.5ZM236.14-1.85L229.69 3.55Q227.94 5.05 224.79 5.88 221.64 6.7 216.69 6.7L216.69 6.7Q211.79 6.7 208.66 5.68 205.54 4.65 203.76 2.95 201.99 1.25 201.31-0.95 200.64-3.15 200.64-5.5L200.64-5.5 200.64-21.05Q200.64-23.35 201.29-25.33 201.94-27.3 203.64-28.7L203.64-28.7 210.14-34.1Q211.89-35.6 215.01-36.43 218.14-37.25 223.14-37.25L223.14-37.25Q228.04-37.25 231.16-36.45 234.29-35.65 236.06-34.23 237.84-32.8 238.49-30.83 239.14-28.85 239.14-26.5L239.14-26.5 239.14-9.45Q239.14-7.15 238.49-5.2 237.84-3.25 236.14-1.85L236.14-1.85ZM238.64-9.45L238.64-9.45 238.64-26.5Q238.64-28.8 237.96-30.68 237.29-32.55 235.56-33.9 233.84-35.25 230.81-36 227.79-36.75 223.14-36.75L223.14-36.75Q218.49-36.75 215.44-36 212.39-35.25 210.66-33.9 208.94-32.55 208.26-30.68 207.59-28.8 207.59-26.5L207.59-26.5 207.59-9.45Q207.59-7.15 208.26-5.28 208.94-3.4 210.66-2.08 212.39-0.75 215.44 0 218.49 0.75 223.14 0.75L223.14 0.75Q227.79 0.75 230.81 0 233.84-0.75 235.56-2.08 237.29-3.4 237.96-5.28 238.64-7.15 238.64-9.45ZM233.19-25.35L233.19-10.6Q233.19-7.6 231.04-5.73 228.89-3.85 223.04-3.85L223.04-3.85Q217.19-3.85 215.09-5.73 212.99-7.6 212.99-10.6L212.99-10.6 212.99-25.35Q212.99-28.35 215.09-30.23 217.19-32.1 223.04-32.1L223.04-32.1Q228.89-32.1 231.04-30.23 233.19-28.35 233.19-25.35L233.19-25.35ZM213.49-25.35L213.49-10.6Q213.49-7.8 215.49-6.08 217.49-4.35 223.04-4.35L223.04-4.35Q228.59-4.35 230.64-6.08 232.69-7.8 232.69-10.6L232.69-10.6 232.69-25.35Q232.69-28.15 230.64-29.88 228.59-31.6 223.04-31.6L223.04-31.6Q217.49-31.6 215.49-29.88 213.49-28.15 213.49-25.35L213.49-25.35ZM218.94-11.25L218.94-11.25 218.94-24.7Q218.94-25.65 219.69-26.33 220.44-27 223.14-27L223.14-27Q225.84-27 226.59-26.33 227.34-25.65 227.34-24.7L227.34-24.7 227.34-11.25Q227.34-10.25 226.59-9.58 225.84-8.9 223.14-8.9L223.14-8.9Q220.44-8.9 219.69-9.58 218.94-10.25 218.94-11.25ZM219.44-20.7L219.44-11.25Q219.44-10.75 219.64-10.38 219.84-10 220.39-9.75L220.39-9.75 220.39-19.25Q220.39-19.75 220.19-20.13 219.99-20.5 219.44-20.7L219.44-20.7ZM253.09 5.95L253.09 5.95 245.34 5.95Q244.13 5.95 243.59 5.4 243.03 4.85 243.03 3.65L243.03 3.65 243.03-28.75Q243.03-29.4 243.21-29.85 243.38-30.3 243.73-30.6L243.73-30.6 250.19-36.05Q250.44-36.25 250.86-36.38 251.28-36.5 251.78-36.5L251.78-36.5 267.08-36.5Q270.63-36.5 273.03-35.75 275.44-35 276.83-33.65 278.24-32.3 278.81-30.4 279.38-28.5 279.38-26.25L279.38-26.25 279.38-19.85Q279.38-17.45 278.71-15.48 278.03-13.5 276.38-12.1L276.38-12.1 269.88-6.7Q268.63-5.65 266.66-4.98 264.69-4.3 261.83-4.2L261.83-4.2 261.83-1.8Q261.83-1.15 261.66-0.7 261.49-0.25 261.13 0.05L261.13 0.05 254.63 5.45Q254.44 5.65 254.01 5.8 253.59 5.95 253.09 5.95ZM251.78 0L259.53 0Q260.49 0 260.91-0.43 261.33-0.85 261.33-1.8L261.33-1.8 261.33-10.1 267.08-10.1Q273.88-10.1 276.38-12.8 278.88-15.5 278.88-19.85L278.88-19.85 278.88-26.25Q278.88-30.6 276.38-33.3 273.88-36 267.08-36L267.08-36 251.78-36Q250.84-36 250.41-35.58 249.98-35.15 249.98-34.2L249.98-34.2 249.98-1.8Q249.98-0.85 250.41-0.43 250.84 0 251.78 0L251.78 0ZM266.38-14.35L266.38-14.35 256.08-14.35 256.08-4.5 255.59-4.5 255.59-31.5 266.38-31.5Q268.74-31.5 270.21-30.98 271.69-30.45 272.49-29.55 273.28-28.65 273.58-27.4 273.88-26.15 273.88-24.7L273.88-24.7 273.88-21Q273.88-19.55 273.58-18.32 273.28-17.1 272.49-16.23 271.69-15.35 270.21-14.85 268.74-14.35 266.38-14.35ZM256.08-31L256.08-14.85 266.38-14.85Q268.58-14.85 269.96-15.3 271.33-15.75 272.08-16.57 272.83-17.4 273.11-18.53 273.38-19.65 273.38-21L273.38-21 273.38-24.7Q273.38-26.05 273.11-27.2 272.83-28.35 272.08-29.2 271.33-30.05 269.96-30.53 268.58-31 266.38-31L266.38-31 256.08-31ZM261.24-19.1L261.24-26.65 265.74-26.65Q267.19-26.65 267.63-25.9 268.08-25.15 268.08-24.2L268.08-24.2 268.08-21.55Q268.08-20.6 267.63-19.85 267.19-19.1 265.74-19.1L265.74-19.1 261.24-19.1ZM306.68-19.25L306.68-19.25Q307.58-19.25 307.98-19.65 308.38-20.05 309.23-21.35L309.23-21.35 315.33-30.65Q315.63-31.15 316.01-31.33 316.38-31.5 316.78-31.5L316.78-31.5 317.63-31.5Q318.33-31.5 318.66-31.13 318.98-30.75 318.98-29.95L318.98-29.95 318.98-4.5 318.48-4.5 318.48-29.95Q318.48-30.35 318.31-30.68 318.13-31 317.63-31L317.63-31 316.88-31Q316.53-31 316.28-30.9 316.03-30.8 315.73-30.3L315.73-30.3 309.63-21.1Q308.73-19.75 308.26-19.25 307.78-18.75 306.68-18.75L306.68-18.75Q305.58-18.75 305.11-19.25 304.63-19.75 303.73-21.1L303.73-21.1 297.63-30.3Q297.33-30.8 297.06-30.9 296.78-31 296.43-31L296.43-31 295.68-31Q295.18-31 295.03-30.68 294.88-30.35 294.88-29.95L294.88-29.95 294.88-4.5 294.38-4.5 294.38-29.95Q294.38-30.75 294.71-31.13 295.03-31.5 295.68-31.5L295.68-31.5 296.53-31.5Q296.93-31.5 297.33-31.33 297.73-31.15 298.03-30.65L298.03-30.65 304.13-21.35Q304.98-20.05 305.38-19.65 305.78-19.25 306.68-19.25ZM290.88 0L298.33 0Q299.28 0 299.71-0.43 300.13-0.85 300.13-1.8L300.13-1.8 300.13-19.4 303.08-13.95Q303.53-13.1 304.16-12.73 304.78-12.35 305.73-12.35L305.73-12.35 307.73-12.35Q308.68-12.35 309.31-12.73 309.93-13.1 310.38-13.95L310.38-13.95 313.33-19.4 313.33-1.8Q313.33-0.85 313.76-0.43 314.18 0 315.13 0L315.13 0 322.83 0Q323.78 0 324.21-0.43 324.63-0.85 324.63-1.8L324.63-1.8 324.63-34.2Q324.63-35.15 324.21-35.58 323.78-36 322.83-36L322.83-36 314.73-36Q313.93-36 313.41-35.65 312.88-35.3 312.43-34.5L312.43-34.5 307.98-26.35Q307.73-25.9 307.56-25.7 307.38-25.5 307.08-25.5L307.08-25.5 306.63-25.5Q306.33-25.5 306.16-25.7 305.98-25.9 305.73-26.35L305.73-26.35 301.23-34.5Q300.78-35.3 300.26-35.65 299.73-36 298.93-36L298.93-36 290.88-36Q289.93-36 289.51-35.58 289.08-35.15 289.08-34.2L289.08-34.2 289.08-1.8Q289.08-0.85 289.51-0.43 289.93 0 290.88 0L290.88 0ZM299.93 0.05L299.93 0.05 293.43 5.45Q293.23 5.65 292.81 5.8 292.38 5.95 291.88 5.95L291.88 5.95 284.43 5.95Q283.23 5.95 282.68 5.4 282.13 4.85 282.13 3.65L282.13 3.65 282.13-28.75Q282.13-29.4 282.31-29.85 282.48-30.3 282.83-30.6L282.83-30.6 289.28-36.05Q289.53-36.25 289.96-36.38 290.38-36.5 290.88-36.5L290.88-36.5 298.93-36.5Q299.88-36.5 300.51-36.1 301.13-35.7 301.68-34.75L301.68-34.75 305.08-28.5 305.53-29.3Q305.73-29.65 305.96-29.98 306.18-30.3 306.43-30.5L306.43-30.5 312.88-35.9Q313.28-36.2 313.71-36.35 314.13-36.5 314.73-36.5L314.73-36.5 322.83-36.5Q324.03-36.5 324.58-35.95 325.13-35.4 325.13-34.2L325.13-34.2 325.13-1.8Q325.13-1.15 324.96-0.7 324.78-0.25 324.43 0.05L324.43 0.05 317.93 5.45Q317.73 5.65 317.31 5.8 316.88 5.95 316.38 5.95L316.38 5.95 308.68 5.95Q307.43 5.95 306.91 5.4 306.38 4.85 306.38 3.65L306.38 3.65 306.38-9.55 303.43-7.1Q303.03-6.75 302.51-6.58 301.98-6.4 301.28-6.4L301.28-6.4 300.63-6.4 300.63-1.8Q300.63-1.15 300.46-0.7 300.28-0.25 299.93 0.05ZM355.08 5.95L355.08 5.95 331.88 5.95Q330.68 5.95 330.13 5.4 329.58 4.85 329.58 3.65L329.58 3.65 329.58-28.75Q329.58-29.4 329.75-29.85 329.93-30.3 330.28-30.6L330.28-30.6 336.73-36.05Q336.98-36.25 337.4-36.38 337.83-36.5 338.33-36.5L338.33-36.5 361.53-36.5Q362.73-36.5 363.28-35.95 363.83-35.4 363.83-34.2L363.83-34.2 363.83-28.35Q363.83-27.7 363.65-27.25 363.48-26.8 363.13-26.5L363.13-26.5 358.83-22.95Q359.33-22.7 359.56-22.2 359.78-21.7 359.78-20.9L359.78-20.9 359.78-15.55Q359.78-14.9 359.6-14.45 359.43-14 359.08-13.7L359.08-13.7 354.63-9.95 361.53-9.95Q362.73-9.95 363.28-9.4 363.83-8.85 363.83-7.65L363.83-7.65 363.83-1.8Q363.83-1.15 363.65-0.7 363.48-0.25 363.13 0.05L363.13 0.05 356.63 5.45Q356.43 5.65 356 5.8 355.58 5.95 355.08 5.95ZM338.33 0L361.53 0Q362.48 0 362.9-0.43 363.33-0.85 363.33-1.8L363.33-1.8 363.33-7.65Q363.33-8.6 362.9-9.03 362.48-9.45 361.53-9.45L361.53-9.45 347.73-9.45 347.73-13.75 357.48-13.75Q358.43-13.75 358.85-14.18 359.28-14.6 359.28-15.55L359.28-15.55 359.28-20.9Q359.28-21.85 358.85-22.28 358.43-22.7 357.48-22.7L357.48-22.7 347.73-22.7 347.73-26.55 361.53-26.55Q362.48-26.55 362.9-26.98 363.33-27.4 363.33-28.35L363.33-28.35 363.33-34.2Q363.33-35.15 362.9-35.58 362.48-36 361.53-36L361.53-36 338.33-36Q337.38-36 336.95-35.58 336.53-35.15 336.53-34.2L336.53-34.2 336.53-1.8Q336.53-0.85 336.95-0.43 337.38 0 338.33 0L338.33 0ZM342.48-5L358.83-5 358.83-4.5 341.98-4.5 341.98-31.5 358.83-31.5 358.83-31 342.48-31 342.48-18.45 354.78-18.45 354.78-17.95 342.48-17.95 342.48-5ZM380.83-31.1L380.83-31.1 399.23-10.4 399.23-31.5 399.73-31.5 399.73-4.5 399.23-4.5 399.23-9.65 380.33-30.85Q380.28-30.9 380.2-30.95 380.13-31 380.08-31L380.08-31Q380.03-31 380-30.95 379.98-30.9 379.98-30.85L379.98-30.85 379.98-4.5 379.48-4.5 379.48-30.95Q379.48-31.25 379.68-31.4 379.88-31.55 380.08-31.55L380.08-31.55Q380.28-31.55 380.43-31.45 380.58-31.35 380.83-31.1ZM376.03 0L383.53 0Q384.48 0 384.9-0.43 385.33-0.85 385.33-1.8L385.33-1.8 385.33-18.3 393.88-7.95 393.88-1.8Q393.88-0.85 394.3-0.43 394.73 0 395.68 0L395.68 0 403.18 0Q404.13 0 404.55-0.43 404.98-0.85 404.98-1.8L404.98-1.8 404.98-34.2Q404.98-35.15 404.55-35.58 404.13-36 403.18-36L403.18-36 395.68-36Q394.73-36 394.3-35.58 393.88-35.15 393.88-34.2L393.88-34.2 393.88-23.55 384.18-34.65Q383.53-35.4 382.85-35.7 382.18-36 381.23-36L381.23-36 376.03-36Q375.08-36 374.65-35.58 374.23-35.15 374.23-34.2L374.23-34.2 374.23-1.8Q374.23-0.85 374.65-0.43 375.08 0 376.03 0L376.03 0ZM385.13 0.05L385.13 0.05 378.63 5.45Q378.43 5.65 378 5.8 377.58 5.95 377.08 5.95L377.08 5.95 369.58 5.95Q368.38 5.95 367.83 5.4 367.28 4.85 367.28 3.65L367.28 3.65 367.28-28.75Q367.28-29.4 367.45-29.85 367.63-30.3 367.98-30.6L367.98-30.6 374.43-36.05Q374.68-36.25 375.1-36.38 375.53-36.5 376.03-36.5L376.03-36.5 381.23-36.5Q382.33-36.5 383.08-36.15 383.83-35.8 384.58-35L384.58-35 388.03-31 394.08-36.05Q394.33-36.25 394.75-36.38 395.18-36.5 395.68-36.5L395.68-36.5 403.18-36.5Q404.38-36.5 404.93-35.95 405.48-35.4 405.48-34.2L405.48-34.2 405.48-1.8Q405.48-1.15 405.3-0.7 405.13-0.25 404.78 0.05L404.78 0.05 398.28 5.45Q398.08 5.65 397.65 5.8 397.23 5.95 396.73 5.95L396.73 5.95 389.23 5.95Q388.03 5.95 387.48 5.4 386.93 4.85 386.93 3.65L386.93 3.65 386.93-2.3 385.83-3.65 385.83-1.8Q385.83-1.15 385.65-0.7 385.48-0.25 385.13 0.05ZM427.43 5.95L427.43 5.95 419.32 5.95Q418.13 5.95 417.57 5.4 417.03 4.85 417.03 3.65L417.03 3.65 417.03-20.4 410.18-20.4Q408.98-20.4 408.43-20.95 407.88-21.5 407.88-22.7L407.88-22.7 407.88-28.75Q407.88-29.4 408.05-29.85 408.23-30.3 408.57-30.6L408.57-30.6 415.03-36.05Q415.28-36.25 415.7-36.38 416.13-36.5 416.63-36.5L416.63-36.5 443.03-36.5Q444.23-36.5 444.78-35.95 445.32-35.4 445.32-34.2L445.32-34.2 445.32-28.15Q445.32-27.5 445.15-27.05 444.98-26.6 444.63-26.3L444.63-26.3 438.13-20.9Q437.93-20.7 437.5-20.55 437.07-20.4 436.57-20.4L436.57-20.4 436.18-20.4 436.18-1.8Q436.18-1.15 436-0.7 435.82-0.25 435.48 0.05L435.48 0.05 428.98 5.45Q428.78 5.65 428.35 5.8 427.93 5.95 427.43 5.95ZM425.78 0L433.88 0Q434.82 0 435.25-0.43 435.68-0.85 435.68-1.8L435.68-1.8 435.68-26.35 443.03-26.35Q443.98-26.35 444.4-26.78 444.82-27.2 444.82-28.15L444.82-28.15 444.82-34.2Q444.82-35.15 444.4-35.58 443.98-36 443.03-36L443.03-36 416.63-36Q415.68-36 415.25-35.58 414.82-35.15 414.82-34.2L414.82-34.2 414.82-28.15Q414.82-27.2 415.25-26.78 415.68-26.35 416.63-26.35L416.63-26.35 423.98-26.35 423.98-1.8Q423.98-0.85 424.4-0.43 424.82 0 425.78 0L425.78 0ZM430.07-4.5L429.57-4.5 429.57-31 419.32-31 419.32-31.5 440.32-31.5 440.32-31 430.07-31 430.07-4.5Z" opacity="1" transform="matrix(1,0,0,1,0,0)" fill="#ffffff" class="undefined-text-1" data-fill-palette-color="quaternary" id="text-1"></path></svg></g></svg></g></svg></g></svg></g><g transform="matrix(1,0,0,1,57.02389396389533,0)"><svg viewBox="0 0 99.11065329936645 101.68174244916109" height="101.68174244916109" width="99.11065329936645"><g><svg xmlns="http://www.w3.org/2000/svg" xmlns:xlink="http://www.w3.org/1999/xlink" version="1.1" x="0" y="0" viewBox="5.637740612030029 5.999001502990723 87.72526550292969 90.0009994506836" enable-background="new 0 0 100 100" xml:space="preserve" height="101.68174244916109" width="99.11065329936645" class="icon-icon-0" data-fill-palette-color="quaternary" id="icon-0"><g fill="#ffffff" data-fill-palette-color="quaternary"><path d="M58.203 96H40.796c-2.211 0-4.011-1.8-4.011-4.011v-7.236c0-0.358-0.744-0.91-1.94-1.438l-0.194-0.09c-2.285-1.021-4.509-2.359-6.563-3.955-0.524-0.407-1.227-0.518-1.633-0.281l-6.016 3.473c-2.092 1.207-4.493 0.42-5.558-1.424L6.177 65.962c-0.536-0.928-0.678-2.008-0.401-3.043 0.278-1.036 0.941-1.901 1.87-2.437l0.938 1.286L7.787 60.4l0.414-0.238 0.912 1.301L8.32 60.094l4.765-2.75c1.446-0.84 1.446-0.84 1.32-1.739-0.201-1.366-0.29-2.776-0.29-4.503v-0.203c0-1.726 0.089-3.136 0.281-4.435l0.013-0.094c0.122-0.874 0.122-0.874-1.377-1.743l-4.709-2.719 0.696-1.425-0.79 1.371-0.44-0.254 0.699-1.423-0.843 1.34c-1.914-1.105-2.573-3.563-1.467-5.478l8.704-15.076c0.714-1.238 2.046-2.006 3.476-2.006 0.701 0 1.394 0.186 2.003 0.537l6.111 3.528c0.409 0.223 1.1 0.11 1.617-0.292 2.052-1.594 4.277-2.933 6.612-3.979l0.145-0.066c1.196-0.528 1.94-1.079 1.94-1.438v-7.236c0-2.212 1.8-4.012 4.011-4.012h17.407c2.212 0 4.011 1.8 4.011 4.012v7.236c0 0.358 0.745 0.909 1.942 1.438l0.171 0.079c2.323 1.042 4.538 2.376 6.586 3.966 0.516 0.401 1.205 0.513 1.616 0.292l6.083-3.512c2.022-1.147 4.446-0.383 5.508 1.451l8.703 15.077c1.104 1.916 0.446 4.373-1.469 5.479l-4.01 2.316-0.901-1.308 0.794 1.369-1.223 0.707c-1.544 0.895-1.544 0.895-1.418 1.795l0.016 0.116c0.188 1.314 0.272 2.698 0.272 4.387L84.884 51l0.001 0.102c0 1.72-0.088 3.123-0.277 4.413l-0.001 0.016c-0.136 0.975-0.136 0.975 1.362 1.844l1.269 0.732-0.692 1.426 0.794-1.368 3.341 1.929-0.698 1.425 0.79-1.372 0.605 0.351c0.905 0.521 1.569 1.387 1.846 2.423 0.278 1.035 0.136 2.115-0.399 3.043L84.12 81.037c-0.715 1.238-2.048 2.006-3.478 2.006-0.701 0-1.394-0.186-2.003-0.537l-6.084-3.513c-0.436-0.252-1.119-0.13-1.642 0.275-2.041 1.585-4.247 2.915-6.558 3.954l-0.227 0.103c-1.171 0.518-1.916 1.069-1.916 1.428v7.236C62.214 94.2 60.415 96 58.203 96zM36.123 80.419c1.643 0.727 3.827 1.965 3.827 4.334v7.236c0 0.466 0.379 0.847 0.846 0.847h17.407c0.467 0 0.848-0.381 0.848-0.847v-7.236c0-2.369 2.185-3.607 3.827-4.334l0.129-0.06c2.102-0.939 4.107-2.147 5.965-3.589 1.52-1.182 3.647-1.392 5.153-0.525l2.512 1.449-0.679 1.437 0.785-1.373 1.374 0.793-0.645 1.454 0.791-1.37 1.941 1.121c0.173 0.092 0.303 0.123 0.438 0.123 0.304 0 0.586-0.163 0.736-0.425l8.703-15.074c0.113-0.196 0.144-0.424 0.084-0.643-0.058-0.218-0.197-0.4-0.394-0.514l-5.343-3.085c-2.381-1.38-3.312-2.363-2.978-4.897l0.016-0.122c0.174-1.184 0.253-2.446 0.253-4.018L81.72 51l0.001-0.102c0-1.571-0.079-2.834-0.247-3.974l-0.018-0.145c-0.353-2.541 0.576-3.529 2.926-4.891l1.577-0.911 0.891 1.312-0.792-1.369 3.04-1.755 0.884 1.316-0.789-1.371 0.523-0.303c0.46-0.266 0.6-0.785 0.366-1.19l-8.703-15.075c-0.227-0.393-0.754-0.542-1.157-0.31l-3.479 2.008-0.84-1.342 0.75 1.394-2.604 1.5v0c-1.617 0.865-3.599 0.585-5.077-0.565-1.854-1.439-3.859-2.646-5.96-3.586l-0.085-0.041c-1.696-0.75-3.876-1.988-3.876-4.354v-7.236c0-0.467-0.381-0.847-0.848-0.847H40.796c-0.467 0-0.846 0.379-0.846 0.847v7.236c0 2.369-2.184 3.607-3.827 4.333l-0.75-1.397 0.655 1.44c-2.139 0.958-4.146 2.166-5.999 3.605-1.52 1.182-3.648 1.392-5.153 0.526l-2.513-1.451 0.679-1.436-0.785 1.374-3.413-1.971c-0.197-0.114-0.338-0.152-0.487-0.152-0.303 0-0.584 0.163-0.735 0.424L8.917 37.62c-0.113 0.196-0.143 0.425-0.084 0.643s0.199 0.4 0.394 0.514l5.34 3.083c2.408 1.396 3.334 2.386 2.971 4.977l-0.014 0.099c-0.167 1.133-0.245 2.396-0.245 3.964l0.001 0.125c-0.001 1.646 0.077 2.909 0.245 4.052l0.014 0.107c0.362 2.573-0.565 3.562-2.921 4.929L9.285 63.19c-0.253 0.146-0.393 0.329-0.452 0.547-0.059 0.219-0.029 0.446 0.084 0.642l8.705 15.076c0.228 0.396 0.756 0.541 1.157 0.311l3.479-2.009 0.841 1.341-0.73-1.405 2.578-1.485c0.553-0.32 1.282-0.511 2.039-0.511 1.072 0 2.153 0.382 3.044 1.074 1.844 1.434 3.839 2.636 5.931 3.574l0.087 0.041-0.129 0.271-0.434 1.211L36.123 80.419z" fill="#ffffff" data-fill-palette-color="quaternary"></path></g><g fill="#ffffff" data-fill-palette-color="quaternary"><path d="M49.5 78.996c-15.382 0-27.896-12.513-27.896-27.895 0-15.382 12.514-27.896 27.896-27.896s27.896 12.514 27.896 27.896C77.396 66.483 64.882 78.996 49.5 78.996zM49.5 26.37c-13.637 0-24.731 11.095-24.731 24.732 0 13.637 11.094 24.731 24.731 24.731 13.638 0 24.732-11.095 24.732-24.731C74.232 37.464 63.138 26.37 49.5 26.37z" fill="#ffffff" data-fill-palette-color="quaternary"></path></g><path fill-rule="evenodd" clip-rule="evenodd" d="M60.46 62.594l-2.454-2.454 8.588-8.587-8.588-8.589 2.454-2.454 11.042 11.043L60.46 62.594zM44.735 61.963l7.537-22.557h3.471l-7.537 22.557H44.735zM39.529 61.726L28.487 50.685l11.042-11.042 2.454 2.454-8.588 8.588 8.588 8.588L39.529 61.726z" fill="#ffffff" data-fill-palette-color="quaternary"></path></svg></g></svg></g><g></g></svg></g></svg></g></svg></g></svg></g></svg><rect width="342.85155851775386" height="342.85155851775386" fill="none" stroke="none" visibility="hidden"></rect></g><defs></defs></svg>